# 3ds Max Wavefront OBJ Exporter v0.99 - (c)2007 guruware
# File Created: 03.12.2022 19:20:59

mtllib lampara.mtl

#
# object lampara
#

v  -0.2557 26.3871 11.9899
v  0.1522 26.3867 11.9900
v  0.1513 26.3867 12.0898
v  -0.2565 26.3871 12.0862
v  0.1513 26.4348 12.0898
v  -0.2565 26.4352 12.0862
v  -0.7399 26.3037 11.7048
v  -0.7399 26.2556 11.7048
v  -0.7147 26.3037 8.8092
v  -0.7147 26.2556 8.8092
v  0.6411 26.3023 11.7048
v  0.6662 26.3023 8.8212
v  0.5733 26.3276 8.8204
v  0.1798 26.4348 8.8170
v  -0.6881 26.2628 8.8094
v  -0.6218 26.2807 8.8100
v  -0.6218 26.3288 8.8100
v  -0.2280 26.4352 8.8134
v  0.6662 26.2542 8.8212
v  0.6397 26.2614 8.8210
v  0.5733 26.2795 8.8204
v  -0.2421 26.0676 8.8133
v  0.1933 26.0672 8.8171
v  -0.6469 26.2807 11.6977
v  -0.2532 26.3871 11.7012
v  0.1547 26.3867 11.7047
v  0.5482 26.2795 11.7081
v  -0.2672 26.0676 11.7010
v  0.1681 26.0672 11.7048
v  -0.6453 26.2387 8.8098
v  -0.2547 26.0195 8.8132
v  0.2058 26.0190 8.8172
v  0.5968 26.2375 8.8206
v  0.6411 26.2542 11.7048
# 34 vertices

vn 0.0600 -0.3891 0.0005
vn -0.0610 -0.3890 -0.0005
vn -0.0386 -0.3918 -0.0003
vn 0.0382 -0.3918 0.0003
vn 0.1177 0.0000 0.3757
vn -0.1216 -0.0000 0.3745
vn -0.1386 -0.0000 0.3685
vn 0.1353 0.0000 0.3697
vn -0.3496 -0.0000 0.1810
vn -0.3608 -0.0000 0.1576
vn -0.3937 0.0000 -0.0034
vn 0.1035 0.3799 0.0009
vn 0.0524 0.3902 0.0005
vn 0.0386 0.3918 0.0003
vn 0.0034 -0.0000 -0.3937
vn 0.0516 -0.3903 0.0004
vn 0.0390 -0.3918 0.0003
vn 0.1027 -0.3801 0.0009
vn -0.1035 -0.3799 -0.0009
vn -0.0397 -0.3917 -0.0003
vn -0.0524 -0.3902 -0.0005
vn 0.3937 0.0000 0.0034
vn 0.3480 0.0000 0.1842
vn 0.3591 0.0000 0.1614
vn -0.0382 0.3918 -0.0003
vn -0.0516 0.3903 -0.0004
vn -0.1027 0.3801 -0.0009
# 27 vertex normals

vt 0.5596 0.0172 0.0000
vt 0.5583 0.0172 0.0000
vt 0.5583 0.0169 0.0000
vt 0.5596 0.0169 0.0000
vt 2.6653 274.6138 0.0000
vt -1.5718 274.6180 0.0000
vt -1.5718 274.1180 0.0000
vt 2.6653 274.1138 0.0000
vt 75.6774 274.1180 0.0000
vt 75.6774 274.6180 0.0000
vt 69.2813 273.2517 0.0000
vt 69.2813 272.7517 0.0000
vt 91.5739 273.2517 0.0000
vt 91.5739 272.7517 0.0000
vt 121.6560 272.7517 0.0000
vt 121.6560 273.2517 0.0000
vt 0.5203 0.0770 0.0000
vt 0.5297 0.0770 0.0000
vt 0.5297 0.0773 0.0000
vt 0.5297 0.0787 0.0000
vt 0.5190 0.0787 0.0000
vt 6.3517 272.8263 0.0000
vt 6.6275 272.7517 0.0000
vt 6.6275 273.2517 0.0000
vt 5.6621 273.0126 0.0000
vt 5.6621 273.5126 0.0000
vt 1.5718 274.6180 0.0000
vt -2.6653 274.6138 0.0000
vt -6.7534 273.5003 0.0000
vt -7.7182 273.2375 0.0000
vt -7.7182 272.7375 0.0000
vt -7.4426 272.8126 0.0000
vt -6.7534 273.0003 0.0000
vt 1.7180 270.7989 0.0000
vt -2.8049 270.7944 0.0000
vt 1.5718 274.1180 0.0000
vt -2.6653 274.1138 0.0000
vt 0.5202 0.0788 0.0000
vt 0.5193 0.0788 0.0000
vt 0.5202 0.0775 0.0000
vt 0.5972 0.0773 0.0000
vt 0.5981 0.0786 0.0000
vt 0.5972 0.0786 0.0000
vt 5.9069 272.5766 0.0000
vt 1.8490 270.2990 0.0000
vt -2.9349 270.2943 0.0000
vt -6.9972 272.5638 0.0000
vt -91.5739 272.7375 0.0000
vt -91.5739 273.2375 0.0000
vt -121.5312 273.2375 0.0000
vt -121.5312 272.7375 0.0000
vt 0.5985 0.0789 0.0000
vt 0.5877 0.0789 0.0000
vt 0.5877 0.0775 0.0000
vt 0.5877 0.0772 0.0000
vt 0.5972 0.0772 0.0000
vt 0.5591 0.0169 0.0000
vt 0.5592 0.0277 0.0000
vt 0.5579 0.0277 0.0000
vt 0.5578 0.0169 0.0000
vt -69.8977 273.2375 0.0000
vt -76.3689 274.6138 0.0000
vt -76.3689 274.1138 0.0000
vt -69.8977 272.7375 0.0000
vt 0.5877 0.0773 0.0000
vt 0.5972 0.0770 0.0000
vt 0.5985 0.0786 0.0000
vt 0.5877 0.0771 0.0000
vt 0.5877 0.0770 0.0000
vt 0.5596 0.0182 0.0000
vt 0.5583 0.0182 0.0000
vt 0.5297 0.0775 0.0000
vt 0.5297 0.0772 0.0000
vt 0.5202 0.0772 0.0000
vt 0.5190 0.0788 0.0000
# 75 texture coords

o lampara
g lampara
usemtl Material__395
s 1
f 1/1/1 2/2/2 3/3/3 
f 3/3/3 4/4/4 1/1/1 
f 5/5/5 6/6/6 4/7/7 
f 4/7/7 3/8/8 5/5/5 
f 4/9/7 6/10/6 7/11/9 
f 7/11/9 8/12/10 4/9/7 
f 9/13/11 10/14/11 8/15/10 
f 8/15/10 7/16/9 9/13/11 
f 11/17/12 12/18/12 13/19/12 
f 11/17/12 13/19/12 14/20/13 
f 11/17/12 14/20/13 5/21/14 
f 15/22/15 10/23/15 9/24/15 
f 16/25/15 15/22/15 9/24/15 
f 16/25/15 9/24/15 17/26/15 
f 16/25/15 17/26/15 18/27/15 
f 16/25/15 18/27/15 14/28/15 
f 16/25/15 14/28/15 13/29/15 
f 16/25/15 13/29/15 12/30/15 
f 12/30/15 19/31/15 20/32/15 
f 12/30/15 20/32/15 21/33/15 
f 16/25/15 12/30/15 21/33/15 
f 22/34/15 16/25/15 21/33/15 
f 22/34/15 21/33/15 23/35/15 
s 8
f 24/25/15 25/36/15 26/37/15 
f 24/25/15 26/37/15 27/33/15 
f 28/34/15 24/25/15 27/33/15 
f 28/34/15 27/33/15 29/35/15 
f 25/38/16 1/39/17 24/40/18 
f 27/41/19 2/42/20 26/43/21 
s 1
f 30/44/15 15/22/15 16/25/15 
f 30/44/15 16/25/15 22/34/15 
f 31/45/15 30/44/15 22/34/15 
f 31/45/15 22/34/15 23/35/15 
f 32/46/15 31/45/15 23/35/15 
f 21/33/15 20/32/15 33/47/15 
f 23/35/15 21/33/15 33/47/15 
f 32/46/15 23/35/15 33/47/15 
f 19/48/22 12/49/22 11/50/23 
f 11/50/23 34/51/24 19/48/22 
f 6/52/25 18/53/26 17/54/27 
f 6/52/25 17/54/27 9/55/27 
f 6/52/25 9/55/27 7/56/27 
f 5/57/14 14/58/13 18/59/26 
f 18/59/26 6/60/25 5/57/14 
f 11/61/23 5/62/5 3/63/8 
f 3/63/8 34/64/24 11/61/23 
f 27/41/19 21/65/19 34/66/19 
f 2/42/2 27/41/19 34/66/19 
f 2/42/2 34/66/19 3/67/3 
f 34/66/19 21/65/19 20/68/19 
f 34/66/19 20/68/19 19/69/19 
s 8
f 25/70/16 2/2/20 1/1/17 
f 2/2/20 25/70/16 26/71/21 
s 1
f 16/72/18 24/40/18 15/73/18 
f 10/73/18 15/73/18 24/40/18 
f 8/74/18 10/73/18 24/40/18 
f 24/40/18 1/39/1 4/75/4 
f 8/74/18 24/40/18 4/75/4 
# 58 faces

#
# object poste
#

v  0.1361 26.8051 0.0785
v  0.1571 26.8051 -0.0000
v  0.1361 26.8051 -0.0785
v  0.0785 26.8051 -0.1361
v  0.0785 26.8051 0.1361
v  0.0000 26.8051 -0.1571
v  0.0000 26.8051 0.1571
v  -0.0785 26.8051 -0.1361
v  -0.0785 26.8051 0.1361
v  -0.1361 26.8051 -0.0785
v  -0.1361 26.8051 0.0785
v  -0.1571 26.8051 -0.0000
v  0.4909 4.9103 -0.0000
v  0.4252 4.9103 0.2455
v  0.5776 0.2407 -0.0000
v  0.5002 0.2407 0.2888
v  0.2455 4.9103 0.4252
v  0.2888 0.2407 0.5002
v  0.0000 4.9103 0.4909
v  0.0000 0.2407 0.5776
v  -0.2455 4.9103 0.4252
v  -0.2888 0.2407 0.5002
v  -0.4252 4.9103 0.2455
v  -0.5002 0.2407 0.2888
v  -0.4909 4.9103 -0.0000
v  -0.5776 0.2407 -0.0000
v  -0.4252 4.9103 -0.2455
v  -0.5002 0.2407 -0.2888
v  -0.2455 4.9103 -0.4252
v  -0.2888 0.2407 -0.5002
v  0.0000 4.9103 -0.4909
v  0.0000 0.2407 -0.5776
v  0.2455 4.9103 -0.4252
v  0.2888 0.2407 -0.5002
v  0.4252 4.9103 -0.2455
v  0.5002 0.2407 -0.2888
v  0.7677 0.2407 0.7677
v  -0.7677 0.2407 0.7677
v  -0.7677 0.0000 0.7677
v  0.7677 0.0000 0.7677
v  -0.7677 0.2407 -0.7677
v  -0.7677 0.0000 -0.7677
v  0.7677 0.2407 -0.7677
v  0.7677 0.0000 -0.7677
# 44 vertices

vn 0.0000 0.3937 -0.0000
vn 0.3937 0.0041 0.0000
vn 0.3409 0.0041 0.1968
vn 0.3937 0.0050 0.0000
vn 0.3409 0.0050 0.1968
vn 0.1968 0.0050 0.3409
vn 0.0000 0.0050 0.3937
vn -0.1968 0.0050 0.3409
vn -0.3409 0.0050 0.1968
vn -0.3937 0.0050 -0.0000
vn -0.3409 0.0050 -0.1968
vn -0.1968 0.0050 -0.3409
vn 0.0000 0.0050 -0.3937
vn 0.1968 0.0050 -0.3409
vn 0.3409 0.0050 -0.1968
vn 0.1968 0.0041 0.3409
vn 0.0000 0.0041 0.3937
vn -0.1968 0.0041 0.3409
vn -0.3409 0.0041 0.1968
vn -0.3937 0.0041 -0.0000
vn -0.3409 0.0041 -0.1968
vn -0.1968 0.0041 -0.3409
vn -0.0000 0.0041 -0.3937
vn 0.1968 0.0041 -0.3409
vn 0.3409 0.0041 -0.1968
vn 0.0000 0.0000 0.3937
vn -0.3937 0.0000 -0.0000
vn 0.0000 0.0000 -0.3937
vn 0.3937 0.0000 -0.0000
vn 0.0000 -0.3937 -0.0000
# 30 vertex normals

vt 0.5901 0.3845 0.0000
vt 0.5903 0.3853 0.0000
vt 0.5901 0.3860 0.0000
vt 0.5896 0.3865 0.0000
vt 0.5896 0.3840 0.0000
vt 0.5889 0.3867 0.0000
vt 0.5889 0.3838 0.0000
vt 0.5882 0.3865 0.0000
vt 0.5882 0.3840 0.0000
vt 0.5876 0.3860 0.0000
vt 0.5876 0.3845 0.0000
vt 0.5875 0.3853 0.0000
vt 0.5912 0.4456 0.0000
vt 0.5904 0.7387 0.0000
vt 0.5897 0.7387 0.0000
vt 0.5889 0.4456 0.0000
vt 0.5914 0.3831 0.0000
vt 0.5887 0.3831 0.0000
vt 0.5922 0.4456 0.0000
vt 0.5899 0.4456 0.0000
vt 0.5897 0.3831 0.0000
vt 0.5924 0.3831 0.0000
vt 0.5912 0.4457 0.0000
vt 0.5889 0.4457 0.0000
vt 0.5887 0.3832 0.0000
vt 0.5914 0.3832 0.0000
vt 0.5885 0.4457 0.0000
vt 0.5862 0.4457 0.0000
vt 0.5860 0.3832 0.0000
vt 0.5848 0.4457 0.0000
vt 0.5825 0.4457 0.0000
vt 0.5822 0.3832 0.0000
vt 0.5850 0.3832 0.0000
vt 0.5810 0.4457 0.0000
vt 0.5787 0.4457 0.0000
vt 0.5785 0.3832 0.0000
vt 0.5812 0.3832 0.0000
vt 0.5760 0.4457 0.0000
vt 0.5758 0.3832 0.0000
vt 0.5783 0.4457 0.0000
vt 0.5773 0.4456 0.0000
vt 0.5750 0.4456 0.0000
vt 0.5748 0.3831 0.0000
vt 0.5775 0.3831 0.0000
vt 0.5783 0.4456 0.0000
vt 0.5760 0.4456 0.0000
vt 0.5758 0.3831 0.0000
vt 0.5785 0.3831 0.0000
vt 0.5810 0.4456 0.0000
vt 0.5787 0.4456 0.0000
vt 0.5812 0.3831 0.0000
vt 0.5848 0.4455 0.0000
vt 0.5825 0.4455 0.0000
vt 0.5822 0.3830 0.0000
vt 0.5850 0.3830 0.0000
vt 0.5885 0.4456 0.0000
vt 0.5862 0.4456 0.0000
vt 0.5860 0.3831 0.0000
vt 0.5914 0.7387 0.0000
vt 0.5907 0.7387 0.0000
vt 0.5877 0.7388 0.0000
vt 0.5870 0.7388 0.0000
vt 0.5840 0.7388 0.0000
vt 0.5832 0.7388 0.0000
vt 0.5803 0.7388 0.0000
vt 0.5795 0.7388 0.0000
vt 0.5768 0.7387 0.0000
vt 0.5775 0.7387 0.0000
vt 0.5765 0.7387 0.0000
vt 0.5758 0.7387 0.0000
vt 0.5803 0.7386 0.0000
vt 0.5795 0.7386 0.0000
vt 0.5840 0.7386 0.0000
vt 0.5832 0.7386 0.0000
vt 0.5825 0.4456 0.0000
vt 0.5848 0.4456 0.0000
vt 0.5877 0.7386 0.0000
vt 0.5870 0.7386 0.0000
vt 0.5959 0.3832 0.0000
vt 0.5819 0.3832 0.0000
vt 0.5819 0.3800 0.0000
vt 0.5959 0.3800 0.0000
vt 0.5713 0.3832 0.0000
vt 0.5713 0.3800 0.0000
vt 0.5853 0.3800 0.0000
vt 0.5853 0.3832 0.0000
vt 0.5959 0.3782 0.0000
vt 0.5959 0.3923 0.0000
vt 0.5819 0.3923 0.0000
vt 0.5819 0.3782 0.0000
vt 0.5713 0.3923 0.0000
vt 0.5713 0.3782 0.0000
vt 0.5853 0.3782 0.0000
vt 0.5853 0.3923 0.0000
# 94 texture coords

o poste
g poste
usemtl Material__395
s 1
f 35/76/28 36/77/28 37/78/28 
f 35/76/28 37/78/28 38/79/28 
f 39/80/28 35/76/28 38/79/28 
f 39/80/28 38/79/28 40/81/28 
f 41/82/28 39/80/28 40/81/28 
f 41/82/28 40/81/28 42/83/28 
f 43/84/28 41/82/28 42/83/28 
f 43/84/28 42/83/28 44/85/28 
f 45/86/28 43/84/28 44/85/28 
f 45/86/28 44/85/28 46/87/28 
s 2
f 47/88/29 36/89/29 35/90/30 
f 35/90/30 48/91/30 47/88/29 
s 4
f 49/92/31 47/88/31 48/91/32 
f 48/91/32 50/93/32 49/92/31 
f 48/94/32 51/95/33 52/96/33 
f 52/96/33 50/97/32 48/94/32 
f 51/98/33 53/99/34 54/100/34 
f 54/100/34 52/101/33 51/98/33 
f 53/102/34 55/103/35 56/104/35 
f 56/104/35 54/100/34 53/102/34 
f 55/105/35 57/106/36 58/107/36 
f 58/107/36 56/108/35 55/105/35 
f 57/109/36 59/110/37 60/111/37 
f 60/111/37 58/112/36 57/109/36 
f 61/113/38 62/114/38 60/111/37 
f 60/111/37 59/115/37 61/113/38 
f 61/116/38 63/117/39 64/118/39 
f 64/118/39 62/119/38 61/116/38 
f 63/120/39 65/121/40 66/122/40 
f 66/122/40 64/123/39 63/120/39 
f 65/124/40 67/125/41 68/123/41 
f 68/123/41 66/126/40 65/124/40 
f 67/127/41 69/128/42 70/129/42 
f 70/129/42 68/130/41 67/127/41 
f 70/93/42 69/131/42 47/132/31 
f 47/132/31 49/133/31 70/93/42 
s 2
f 35/134/30 39/135/43 51/95/43 
f 51/95/43 48/94/30 35/134/30 
f 39/89/43 41/90/44 53/99/44 
f 53/99/44 51/98/43 39/89/43 
f 41/136/44 43/137/45 55/103/45 
f 55/103/45 53/102/44 41/136/44 
f 43/138/45 45/139/46 57/106/46 
f 57/106/46 55/105/45 43/138/45 
f 45/140/46 46/141/47 59/110/47 
f 59/110/47 57/109/46 45/140/46 
f 44/142/48 61/113/48 59/115/47 
f 59/115/47 46/143/47 44/142/48 
f 44/144/48 42/145/49 63/117/49 
f 63/117/49 61/116/48 44/144/48 
f 42/143/49 40/142/50 65/121/50 
f 65/121/50 63/120/49 42/143/49 
f 40/146/50 38/147/51 67/125/51 
f 67/125/51 65/124/50 40/146/50 
f 38/148/51 37/149/52 69/150/52 
f 69/150/52 67/151/51 38/148/51 
f 69/131/52 37/152/52 36/153/29 
f 36/153/29 47/132/29 69/131/52 
f 71/154/53 72/155/53 73/156/53 
f 73/156/53 74/157/53 71/154/53 
f 75/158/54 76/159/54 73/160/54 
f 73/160/54 72/161/54 75/158/54 
f 75/161/55 77/158/55 78/159/55 
f 78/159/55 76/160/55 75/161/55 
f 71/162/28 77/163/28 75/164/28 
f 75/164/28 72/165/28 71/162/28 
f 78/157/56 77/154/56 71/155/56 
f 71/155/56 74/156/56 78/157/56 
f 78/166/57 74/167/57 73/168/57 
f 73/168/57 76/169/57 78/166/57 
# 70 faces

#
# object arreglo_brazo
#

v  -0.1075 24.8627 -3.6693
v  0.1075 24.8627 -3.6693
v  0.1739 24.6952 -3.6047
v  -0.1739 24.6952 -3.6047
v  -0.0000 24.5917 -3.5648
v  0.1075 25.3650 -1.9261
v  -0.1075 25.3650 -1.9261
v  0.1075 25.9933 2.2382
v  -0.1075 25.9933 2.2382
v  0.1739 25.1934 -1.8760
v  0.1739 25.8177 2.2620
v  -0.0000 25.7091 2.2767
v  -0.0000 25.3388 -0.1778
v  -0.0000 25.2959 -0.4627
v  -0.0000 25.0873 -1.8450
v  -0.1739 25.8177 2.2620
v  -0.1739 25.1934 -1.8760
v  -0.0000 26.0517 8.8325
v  -0.1739 26.1606 8.8249
v  -0.1075 26.3368 8.8125
v  0.1739 26.1606 8.8249
v  0.1075 26.3368 8.8125
v  -0.0000 24.6711 -3.2895
# 23 vertices

vn 0.0000 -0.1416 -0.3673
vn 0.2203 0.3187 -0.0699
vn 0.2187 0.3146 -0.0907
vn -0.2187 0.3146 -0.0907
vn -0.2203 0.3187 -0.0699
vn 0.2210 0.3241 -0.0329
vn -0.2210 0.3241 -0.0329
vn 0.3762 -0.1133 0.0254
vn 0.3754 -0.1181 0.0122
vn 0.0000 -0.3917 0.0395
vn 0.0000 -0.3893 0.0587
vn 0.0000 -0.3848 0.0834
vn -0.3754 -0.1181 0.0122
vn -0.3762 -0.1133 0.0254
vn 0.0000 -0.3932 0.0205
vn -0.3722 -0.1282 0.0067
vn -0.2252 0.3225 -0.0168
vn 0.3722 -0.1282 0.0067
vn 0.2252 0.3225 -0.0168
vn -0.3771 -0.1088 0.0313
vn -0.2111 -0.3193 0.0920
vn 0.0000 -0.3783 0.1090
vn 0.3771 -0.1088 0.0313
vn 0.2111 -0.3193 0.0920
# 24 vertex normals

vt 0.5202 0.8827 0.0000
vt 0.5159 0.8827 0.0000
vt 0.5145 0.8790 0.0000
vt 0.5215 0.8790 0.0000
vt 0.5180 0.8768 0.0000
vt 0.5159 0.4228 0.0000
vt 0.5159 0.3862 0.0000
vt 0.5202 0.3862 0.0000
vt 0.5202 0.4228 0.0000
vt 0.5159 0.4689 0.0000
vt 0.5159 0.3838 0.0000
vt 0.5202 0.3838 0.0000
vt 0.5202 0.4689 0.0000
vt 0.7373 0.7926 0.0000
vt 0.7384 0.7963 0.0000
vt 0.6543 0.8098 0.0000
vt 0.6538 0.8060 0.0000
vt 0.7338 0.6638 0.0000
vt 0.6524 0.6868 0.0000
vt 0.6513 0.6828 0.0000
vt 0.6996 0.6691 0.0000
vt 0.7052 0.6675 0.0000
vt 0.7324 0.6598 0.0000
vt 0.3123 0.6541 0.0000
vt 0.3934 0.6771 0.0000
vt 0.3923 0.6811 0.0000
vt 0.3109 0.6580 0.0000
vt 0.3395 0.6618 0.0000
vt 0.3451 0.6634 0.0000
vt 0.3898 0.6895 0.0000
vt 0.5218 0.7025 0.0000
vt 0.5214 0.7066 0.0000
vt 0.3892 0.6936 0.0000
vt 0.5211 0.8209 0.0000
vt 0.3882 0.8135 0.0000
vt 0.3888 0.8097 0.0000
vt 0.5214 0.8171 0.0000
vt 0.6545 0.6995 0.0000
vt 0.5223 0.7125 0.0000
vt 0.5218 0.7084 0.0000
vt 0.6539 0.6954 0.0000
vt 0.6542 0.8072 0.0000
vt 0.6547 0.8110 0.0000
vt 0.5218 0.8184 0.0000
vt 0.5216 0.8146 0.0000
vt 0.5159 0.5744 0.0000
vt 0.5159 0.4414 0.0000
vt 0.5202 0.4414 0.0000
vt 0.5202 0.5744 0.0000
vt 0.3884 0.8122 0.0000
vt 0.3043 0.7987 0.0000
vt 0.3054 0.7950 0.0000
vt 0.3889 0.8084 0.0000
vt 0.3051 0.7966 0.0000
vt 0.2700 0.7858 0.0000
vt 0.2715 0.7822 0.0000
vt 0.3062 0.7929 0.0000
vt 0.2932 0.6184 0.0000
vt 0.3251 0.6355 0.0000
vt 0.3231 0.6392 0.0000
vt 0.2911 0.6220 0.0000
vt 0.2983 0.6211 0.0000
vt 0.7548 0.6272 0.0000
vt 0.7228 0.6444 0.0000
vt 0.7208 0.6407 0.0000
vt 0.7476 0.6264 0.0000
vt 0.7527 0.6236 0.0000
vt 0.7709 0.7799 0.0000
vt 0.7724 0.7835 0.0000
vt 0.7373 0.7943 0.0000
vt 0.7362 0.7906 0.0000
# 71 texture coords

o arreglo_brazo
g arreglo_brazo
usemtl Material__395
s 2
f 79/170/58 80/171/58 81/172/58 
f 82/173/58 79/170/58 81/172/58 
f 82/173/58 81/172/58 83/174/58 
f 84/175/59 80/176/60 79/177/61 
f 79/177/61 85/178/62 84/175/59 
f 86/179/63 84/180/59 85/181/62 
f 85/181/62 87/182/64 86/179/63 
f 88/183/65 84/184/59 86/185/63 
f 86/185/63 89/186/66 88/183/65 
f 88/187/65 89/188/66 90/189/67 
f 88/187/65 90/189/67 91/190/68 
f 88/187/65 91/190/68 92/191/68 
f 88/187/65 92/191/68 93/192/69 
f 93/193/69 90/194/67 94/195/70 
f 94/195/70 95/196/71 93/193/69 
f 90/194/67 93/193/69 92/197/68 
f 90/194/67 92/197/68 91/198/68 
f 90/199/67 96/200/72 97/201/73 
f 97/201/73 94/202/70 90/199/67 
f 98/203/74 87/204/64 94/205/70 
f 94/205/70 97/206/73 98/203/74 
f 89/207/66 99/208/75 96/209/72 
f 96/209/72 90/210/67 89/207/66 
f 89/211/66 86/212/63 100/213/76 
f 100/213/76 99/214/75 89/211/66 
f 100/215/76 86/216/63 87/217/64 
f 87/217/64 98/218/74 100/215/76 
f 87/219/64 85/220/62 95/221/71 
f 95/221/71 94/222/70 87/219/64 
f 85/223/62 79/224/61 82/225/77 
f 82/225/77 95/226/71 85/223/62 
f 83/227/78 93/228/69 95/229/71 
f 95/229/71 82/230/77 83/227/78 
f 93/228/69 83/227/78 101/231/79 
f 81/232/80 88/233/65 93/234/69 
f 81/232/80 93/234/69 101/235/79 
f 81/232/80 101/235/79 83/236/81 
f 81/237/80 80/238/60 84/239/59 
f 84/239/59 88/240/65 81/237/80 
# 39 faces

#
# object Luz
#

v  -0.2672 26.0676 11.7010
v  -0.6218 26.2807 8.8100
v  -0.6469 26.2807 11.6977
v  -0.2421 26.0676 8.8133
v  -0.2557 26.3871 11.9899
v  0.1681 26.0672 11.7048
v  0.1522 26.3867 11.9900
v  0.5482 26.2795 11.7081
v  0.1933 26.0672 8.8171
v  0.5733 26.2795 8.8204
# 10 vertices

vn 0.2534 0.9674 0.0022
vn 0.4894 0.8720 0.0043
vn 0.1378 0.6600 -0.7385
vn -0.1503 0.6554 -0.7402
vn 0.1638 0.6584 -0.7347
vn -0.1286 0.6567 -0.7431
vn -0.3385 0.6170 -0.7104
vn 0.3542 0.6201 -0.7000
vn -0.2515 0.9679 -0.0022
vn -0.4877 0.8730 -0.0042
# 10 vertex normals

vt 0.5883 0.1703 0.0000
vt 0.5927 0.1709 0.0000
vt 0.5883 0.1709 0.0000
vt 0.5927 0.1703 0.0000
vt 0.6066 0.1930 0.0000
vt 0.6059 0.1924 0.0000
vt 0.6066 0.1924 0.0000
vt 0.6141 0.1928 0.0000
vt 0.6134 0.1926 0.0000
vt 0.6139 0.1922 0.0000
vt 0.5983 0.1927 0.0000
vt 0.5986 0.1921 0.0000
vt 0.5991 0.1925 0.0000
vt 0.6066 0.1322 0.0000
vt 0.6060 0.1366 0.0000
vt 0.6059 0.1322 0.0000
vt 0.6066 0.1366 0.0000
vt 0.6245 0.1710 0.0000
vt 0.6200 0.1703 0.0000
vt 0.6245 0.1703 0.0000
vt 0.6200 0.1710 0.0000
vt 0.6068 0.1931 0.0000
vt 0.6061 0.1931 0.0000
vt 0.6061 0.1925 0.0000
# 24 texture coords

o Luz
g Luz
usemtl Material__395
s 4
f 102/241/82 103/242/83 104/243/83 
f 103/242/83 102/241/82 105/244/82 
f 106/245/84 107/246/85 102/247/86 
f 108/248/87 109/249/88 107/250/85 
f 106/251/84 102/252/86 104/253/89 
f 107/254/90 105/255/82 102/256/82 
f 105/255/82 107/254/90 110/257/90 
f 109/258/91 110/259/90 107/260/90 
f 110/259/90 109/258/91 111/261/91 
f 106/262/84 108/263/87 107/264/85 
# 10 faces

